<?xml version="1.0" encoding="UTF-8"?>
<!DOCTYPE svg PUBLIC "-//W3C//DTD SVG 1.1//EN"
    "http://www.w3.org/Graphics/SVG/1.1/DTD/svg11.dtd"><svg xmlns="http://www.w3.org/2000/svg" height="120" width="120" xmlns:xlink="http://www.w3.org/1999/xlink" version="1.11.1"><g transform="translate(25,10)"><line x2="0.0" y1="0.0" stroke="black" stroke-width="2px" y2="10.0" x1="0.0"/><line x2="-8.660254037844386" y1="10.0" stroke="black" stroke-width="2px" y2="15.0" x1="0.0"/><line x2="0.0" y1="15.0" stroke="black" stroke-width="2px" y2="20.0" x1="-8.660254037844386"/><line x2="0.0" y1="20.0" stroke="black" stroke-width="2px" y2="30.0" x1="0.0"/><line x2="-8.660254037844386" y1="30.0" stroke="black" stroke-width="2px" y2="35.0" x1="0.0"/><line x2="-17.32050807568877" y1="35.0" stroke="black" stroke-width="2px" y2="30.0" x1="-8.660254037844386"/><line x2="-17.32050807568877" y1="30.0" stroke="black" stroke-width="2px" y2="40.0" x1="-17.32050807568877"/><line x2="-25.980762113533157" y1="40.0" stroke="black" stroke-width="2px" y2="45.0" x1="-17.32050807568877"/><line x2="-17.32050807568877" y1="45.0" stroke="black" stroke-width="2px" y2="50.0" x1="-25.980762113533157"/><line x2="-17.32050807568877" y1="50.0" stroke="black" stroke-width="2px" y2="60.0" x1="-17.32050807568877"/><line x2="-8.660254037844384" y1="60.0" stroke="black" stroke-width="2px" y2="55.0" x1="-17.32050807568877"/><line x2="1.7763568394002505e-15" y1="55.0" stroke="black" stroke-width="2px" y2="60.0" x1="-8.660254037844384"/><line x2="1.7763568394002505e-15" y1="60.0" stroke="black" stroke-width="2px" y2="70.0" x1="1.7763568394002505e-15"/><line x2="-8.660254037844384" y1="70.0" stroke="black" stroke-width="2px" y2="75.0" x1="1.7763568394002505e-15"/><line x2="1.7763568394002505e-15" y1="75.0" stroke="black" stroke-width="2px" y2="80.0" x1="-8.660254037844384"/><line x2="1.7763568394002505e-15" y1="80.0" stroke="black" stroke-width="2px" y2="90.0" x1="1.7763568394002505e-15"/><line x2="8.660254037844389" y1="90.0" stroke="black" stroke-width="2px" y2="85.0" x1="1.7763568394002505e-15"/><line x2="17.320508075688775" y1="85.0" stroke="black" stroke-width="2px" y2="90.0" x1="8.660254037844389"/><line x2="17.320508075688775" y1="90.0" stroke="black" stroke-width="2px" y2="80.0" x1="17.320508075688775"/><line x2="25.98076211353316" y1="80.0" stroke="black" stroke-width="2px" y2="75.0" x1="17.320508075688775"/><line x2="34.64101615137755" y1="75.0" stroke="black" stroke-width="2px" y2="80.0" x1="25.98076211353316"/><line x2="34.641016151377556" y1="80.0" stroke="black" stroke-width="2px" y2="90.0" x1="34.64101615137755"/><line x2="43.30127018922194" y1="90.0" stroke="black" stroke-width="2px" y2="85.0" x1="34.641016151377556"/><line x2="51.96152422706633" y1="85.0" stroke="black" stroke-width="2px" y2="90.0" x1="43.30127018922194"/><line x2="51.96152422706633" y1="90.0" stroke="black" stroke-width="2px" y2="80.0" x1="51.96152422706633"/><line x2="60.621778264910716" y1="80.0" stroke="black" stroke-width="2px" y2="75.0" x1="51.96152422706633"/><line x2="51.96152422706633" y1="75.0" stroke="black" stroke-width="2px" y2="70.0" x1="60.621778264910716"/><line x2="51.96152422706632" y1="70.0" stroke="black" stroke-width="2px" y2="60.0" x1="51.96152422706633"/><line x2="60.6217782649107" y1="60.0" stroke="black" stroke-width="2px" y2="54.99999999999999" x1="51.96152422706632"/><line x2="69.2820323027551" y1="54.99999999999999" stroke="black" stroke-width="2px" y2="59.999999999999986" x1="60.6217782649107"/><line x2="69.28203230275508" y1="59.999999999999986" stroke="black" stroke-width="2px" y2="49.999999999999986" x1="69.2820323027551"/><line x2="77.94228634059947" y1="49.999999999999986" stroke="black" stroke-width="2px" y2="44.99999999999998" x1="69.28203230275508"/><line x2="69.28203230275508" y1="44.99999999999998" stroke="black" stroke-width="2px" y2="39.999999999999986" x1="77.94228634059947"/><line x2="69.28203230275507" y1="39.999999999999986" stroke="black" stroke-width="2px" y2="29.999999999999986" x1="69.28203230275508"/><line x2="60.62177826491069" y1="29.999999999999986" stroke="black" stroke-width="2px" y2="34.99999999999999" x1="69.28203230275507"/><line x2="51.96152422706629" y1="34.99999999999999" stroke="black" stroke-width="2px" y2="30.000000000000004" x1="60.62177826491069"/><line x2="51.96152422706628" y1="30.000000000000004" stroke="black" stroke-width="2px" y2="20.000000000000004" x1="51.96152422706629"/><line x2="60.62177826491065" y1="20.000000000000004" stroke="black" stroke-width="2px" y2="14.999999999999986" x1="51.96152422706628"/><line x2="51.961524227066256" y1="14.999999999999986" stroke="black" stroke-width="2px" y2="10.000000000000004" x1="60.62177826491065"/><line x2="51.96152422706623" y1="10.000000000000004" stroke="black" stroke-width="2px" y2="3.552713678800501e-15" x1="51.961524227066256"/><line x2="43.30127018922185" y1="3.552713678800501e-15" stroke="black" stroke-width="2px" y2="5.000000000000028" x1="51.96152422706623"/><line x2="34.64101615137745" y1="5.000000000000028" stroke="black" stroke-width="2px" y2="5.5067062021407764e-14" x1="43.30127018922185"/><line x2="34.641016151377485" y1="5.5067062021407764e-14" stroke="black" stroke-width="2px" y2="10.000000000000055" x1="34.64101615137745"/><line x2="25.980762113533117" y1="10.000000000000055" stroke="black" stroke-width="2px" y2="15.000000000000085" x1="34.641016151377485"/><line x2="17.32050807568871" y1="15.000000000000085" stroke="black" stroke-width="2px" y2="10.00000000000012" x1="25.980762113533117"/><line x2="17.320508075688668" y1="10.00000000000012" stroke="black" stroke-width="2px" y2="1.2079226507921703e-13" x1="17.32050807568871"/><line x2="8.660254037844304" y1="1.2079226507921703e-13" stroke="black" stroke-width="2px" y2="5.00000000000016" x1="17.320508075688668"/><line x2="-1.0658141036401503e-13" y1="5.00000000000016" stroke="black" stroke-width="2px" y2="2.0250467969162855e-13" x1="8.660254037844304"/></g></svg>
