<?xml version="1.0" encoding="UTF-8"?>
<!DOCTYPE svg PUBLIC "-//W3C//DTD SVG 1.1//EN"
    "http://www.w3.org/Graphics/SVG/1.1/DTD/svg11.dtd"><svg xmlns="http://www.w3.org/2000/svg" height="300" width="100" xmlns:xlink="http://www.w3.org/1999/xlink" version="1.11.1"><g transform="translate(50,100)"><line x2="0.0" y1="0.0" stroke="black" stroke-width="2px" y2="10.0" x1="0.0"/><line x2="-10.0" y1="10.0" stroke="black" stroke-width="2px" y2="10.0" x1="0.0"/><line x2="-10.0" y1="10.0" stroke="black" stroke-width="2px" y2="20.0" x1="-10.0"/><line x2="0.0" y1="20.0" stroke="black" stroke-width="2px" y2="20.0" x1="-10.0"/><line x2="0.0" y1="20.0" stroke="black" stroke-width="2px" y2="30.0" x1="0.0"/><line x2="-10.0" y1="30.0" stroke="black" stroke-width="2px" y2="30.0" x1="0.0"/><line x2="-10.000000000000002" y1="30.0" stroke="black" stroke-width="2px" y2="20.0" x1="-10.0"/><line x2="-20.0" y1="20.0" stroke="black" stroke-width="2px" y2="20.0" x1="-10.000000000000002"/><line x2="-20.0" y1="20.0" stroke="black" stroke-width="2px" y2="30.0" x1="-20.0"/><line x2="-30.0" y1="30.0" stroke="black" stroke-width="2px" y2="30.0" x1="-20.0"/><line x2="-30.0" y1="30.0" stroke="black" stroke-width="2px" y2="40.0" x1="-30.0"/><line x2="-40.0" y1="40.0" stroke="black" stroke-width="2px" y2="40.0" x1="-30.0"/><line x2="-40.0" y1="40.0" stroke="black" stroke-width="2px" y2="50.0" x1="-40.0"/><line x2="-30.0" y1="50.0" stroke="black" stroke-width="2px" y2="50.0" x1="-40.0"/><line x2="-30.0" y1="50.0" stroke="black" stroke-width="2px" y2="60.0" x1="-30.0"/><line x2="-20.0" y1="60.0" stroke="black" stroke-width="2px" y2="60.0" x1="-30.0"/><line x2="-20.0" y1="60.0" stroke="black" stroke-width="2px" y2="70.0" x1="-20.0"/><line x2="-10.0" y1="70.0" stroke="black" stroke-width="2px" y2="70.0" x1="-20.0"/><line x2="-9.999999999999998" y1="70.0" stroke="black" stroke-width="2px" y2="60.0" x1="-10.0"/><line x2="1.7763568394002505e-15" y1="60.0" stroke="black" stroke-width="2px" y2="60.0" x1="-9.999999999999998"/><line x2="1.7763568394002505e-15" y1="60.0" stroke="black" stroke-width="2px" y2="70.0" x1="1.7763568394002505e-15"/><line x2="-9.999999999999998" y1="70.0" stroke="black" stroke-width="2px" y2="70.0" x1="1.7763568394002505e-15"/><line x2="-9.999999999999998" y1="70.0" stroke="black" stroke-width="2px" y2="80.0" x1="-9.999999999999998"/><line x2="1.7763568394002505e-15" y1="80.0" stroke="black" stroke-width="2px" y2="80.0" x1="-9.999999999999998"/><line x2="1.7763568394002505e-15" y1="80.0" stroke="black" stroke-width="2px" y2="90.0" x1="1.7763568394002505e-15"/></g></svg>
