<?xml version="1.0" encoding="UTF-8"?>
<!DOCTYPE svg PUBLIC "-//W3C//DTD SVG 1.1//EN"
    "http://www.w3.org/Graphics/SVG/1.1/DTD/svg11.dtd"><svg xmlns="http://www.w3.org/2000/svg" height="200" width="100" xmlns:xlink="http://www.w3.org/1999/xlink" version="1.11.1"><g transform="translate(50,70)"><line x2="0.0" y1="0.0" stroke="black" stroke-width="2px" y2="10.0" x1="0.0"/><line x2="-8.660254037844387" y1="10.0" stroke="black" stroke-width="2px" y2="5.000000000000002" x1="0.0"/><line x2="-8.660254037844387" y1="5.000000000000002" stroke="black" stroke-width="2px" y2="15.000000000000002" x1="-8.660254037844387"/><line x2="0.0" y1="15.000000000000002" stroke="black" stroke-width="2px" y2="10.000000000000004" x1="-8.660254037844387"/><line x2="0.0" y1="10.000000000000004" stroke="black" stroke-width="2px" y2="20.000000000000004" x1="0.0"/><line x2="-8.660254037844387" y1="20.000000000000004" stroke="black" stroke-width="2px" y2="15.000000000000005" x1="0.0"/><line x2="-3.552713678800501e-15" y1="15.000000000000005" stroke="black" stroke-width="2px" y2="10.0" x1="-8.660254037844387"/><line x2="-8.66025403784439" y1="10.0" stroke="black" stroke-width="2px" y2="5.000000000000002" x1="-3.552713678800501e-15"/><line x2="-8.66025403784439" y1="5.000000000000002" stroke="black" stroke-width="2px" y2="15.000000000000002" x1="-8.66025403784439"/><line x2="-17.320508075688778" y1="15.000000000000002" stroke="black" stroke-width="2px" y2="10.000000000000004" x1="-8.66025403784439"/><line x2="-17.320508075688778" y1="10.000000000000004" stroke="black" stroke-width="2px" y2="20.000000000000004" x1="-17.320508075688778"/><line x2="-25.980762113533167" y1="20.000000000000004" stroke="black" stroke-width="2px" y2="15.000000000000005" x1="-17.320508075688778"/><line x2="-25.980762113533167" y1="15.000000000000005" stroke="black" stroke-width="2px" y2="25.000000000000007" x1="-25.980762113533167"/><line x2="-17.320508075688778" y1="25.000000000000007" stroke="black" stroke-width="2px" y2="20.000000000000007" x1="-25.980762113533167"/><line x2="-17.320508075688778" y1="20.000000000000007" stroke="black" stroke-width="2px" y2="30.000000000000007" x1="-17.320508075688778"/><line x2="-8.66025403784439" y1="30.000000000000007" stroke="black" stroke-width="2px" y2="25.000000000000007" x1="-17.320508075688778"/><line x2="-8.66025403784439" y1="25.000000000000007" stroke="black" stroke-width="2px" y2="35.00000000000001" x1="-8.66025403784439"/><line x2="-3.552713678800501e-15" y1="35.00000000000001" stroke="black" stroke-width="2px" y2="30.000000000000007" x1="-8.66025403784439"/><line x2="-8.660254037844387" y1="30.000000000000007" stroke="black" stroke-width="2px" y2="25.000000000000004" x1="-3.552713678800501e-15"/><line x2="0.0" y1="25.000000000000004" stroke="black" stroke-width="2px" y2="20.000000000000007" x1="-8.660254037844387"/><line x2="0.0" y1="20.000000000000007" stroke="black" stroke-width="2px" y2="30.000000000000007" x1="0.0"/><line x2="-8.660254037844387" y1="30.000000000000007" stroke="black" stroke-width="2px" y2="25.000000000000007" x1="0.0"/><line x2="-8.660254037844387" y1="25.000000000000007" stroke="black" stroke-width="2px" y2="35.00000000000001" x1="-8.660254037844387"/><line x2="0.0" y1="35.00000000000001" stroke="black" stroke-width="2px" y2="30.000000000000007" x1="-8.660254037844387"/><line x2="0.0" y1="30.000000000000007" stroke="black" stroke-width="2px" y2="40.00000000000001" x1="0.0"/><line x2="-8.660254037844387" y1="40.00000000000001" stroke="black" stroke-width="2px" y2="35.00000000000001" x1="0.0"/><line x2="-3.552713678800501e-15" y1="35.00000000000001" stroke="black" stroke-width="2px" y2="30.000000000000004" x1="-8.660254037844387"/><line x2="-8.66025403784439" y1="30.000000000000004" stroke="black" stroke-width="2px" y2="25.000000000000007" x1="-3.552713678800501e-15"/><line x2="-8.66025403784439" y1="25.000000000000007" stroke="black" stroke-width="2px" y2="35.00000000000001" x1="-8.66025403784439"/><line x2="-17.320508075688778" y1="35.00000000000001" stroke="black" stroke-width="2px" y2="30.000000000000007" x1="-8.66025403784439"/><line x2="-8.660254037844394" y1="30.000000000000007" stroke="black" stroke-width="2px" y2="25.000000000000004" x1="-17.320508075688778"/><line x2="-8.660254037844393" y1="25.000000000000004" stroke="black" stroke-width="2px" y2="35.0" x1="-8.660254037844394"/><line x2="-3.552713678800501e-15" y1="35.0" stroke="black" stroke-width="2px" y2="30.000000000000004" x1="-8.660254037844393"/><line x2="-8.660254037844386" y1="30.000000000000004" stroke="black" stroke-width="2px" y2="25.0" x1="-3.552713678800501e-15"/><line x2="3.552713678800501e-15" y1="25.0" stroke="black" stroke-width="2px" y2="20.000000000000004" x1="-8.660254037844386"/><line x2="-8.660254037844378" y1="20.000000000000004" stroke="black" stroke-width="2px" y2="14.999999999999998" x1="3.552713678800501e-15"/><line x2="1.0658141036401503e-14" y1="14.999999999999998" stroke="black" stroke-width="2px" y2="10.000000000000002" x1="-8.660254037844378"/><line x2="-8.660254037844371" y1="10.000000000000002" stroke="black" stroke-width="2px" y2="4.9999999999999964" x1="1.0658141036401503e-14"/><line x2="-8.66025403784438" y1="4.9999999999999964" stroke="black" stroke-width="2px" y2="14.999999999999996" x1="-8.660254037844371"/><line x2="-17.320508075688764" y1="14.999999999999996" stroke="black" stroke-width="2px" y2="9.999999999999991" x1="-8.66025403784438"/><line x2="-17.32050807568877" y1="9.999999999999991" stroke="black" stroke-width="2px" y2="19.999999999999993" x1="-17.320508075688764"/><line x2="-25.980762113533153" y1="19.999999999999993" stroke="black" stroke-width="2px" y2="14.999999999999988" x1="-17.32050807568877"/><line x2="-25.98076211353316" y1="14.999999999999988" stroke="black" stroke-width="2px" y2="24.999999999999986" x1="-25.980762113533153"/><line x2="-17.32050807568877" y1="24.999999999999986" stroke="black" stroke-width="2px" y2="19.999999999999996" x1="-25.98076211353316"/><line x2="-17.320508075688778" y1="19.999999999999996" stroke="black" stroke-width="2px" y2="29.999999999999996" x1="-17.32050807568877"/><line x2="-25.98076211353316" y1="29.999999999999996" stroke="black" stroke-width="2px" y2="24.999999999999993" x1="-17.320508075688778"/><line x2="-17.32050807568877" y1="24.999999999999993" stroke="black" stroke-width="2px" y2="19.999999999999996" x1="-25.98076211353316"/><line x2="-25.980762113533153" y1="19.999999999999996" stroke="black" stroke-width="2px" y2="14.999999999999991" x1="-17.32050807568877"/><line x2="-25.98076211353316" y1="14.999999999999991" stroke="black" stroke-width="2px" y2="24.999999999999993" x1="-25.980762113533153"/><line x2="-34.64101615137754" y1="24.999999999999993" stroke="black" stroke-width="2px" y2="19.999999999999986" x1="-25.98076211353316"/><line x2="-25.980762113533153" y1="19.999999999999986" stroke="black" stroke-width="2px" y2="14.99999999999999" x1="-34.64101615137754"/><line x2="-25.98076211353315" y1="14.99999999999999" stroke="black" stroke-width="2px" y2="24.99999999999999" x1="-25.980762113533153"/><line x2="-17.32050807568876" y1="24.99999999999999" stroke="black" stroke-width="2px" y2="19.999999999999993" x1="-25.98076211353315"/><line x2="-25.980762113533142" y1="19.999999999999993" stroke="black" stroke-width="2px" y2="14.999999999999988" x1="-17.32050807568876"/><line x2="-17.320508075688753" y1="14.999999999999988" stroke="black" stroke-width="2px" y2="9.999999999999991" x1="-25.980762113533142"/><line x2="-17.32050807568875" y1="9.999999999999991" stroke="black" stroke-width="2px" y2="19.999999999999993" x1="-17.320508075688753"/><line x2="-25.98076211353314" y1="19.999999999999993" stroke="black" stroke-width="2px" y2="15.0" x1="-17.32050807568875"/><line x2="-25.980762113533135" y1="15.0" stroke="black" stroke-width="2px" y2="25.0" x1="-25.98076211353314"/><line x2="-17.320508075688746" y1="25.0" stroke="black" stroke-width="2px" y2="20.000000000000004" x1="-25.980762113533135"/><line x2="-17.320508075688743" y1="20.000000000000004" stroke="black" stroke-width="2px" y2="30.000000000000004" x1="-17.320508075688746"/><line x2="-8.660254037844354" y1="30.000000000000004" stroke="black" stroke-width="2px" y2="25.000000000000007" x1="-17.320508075688743"/><line x2="-8.660254037844352" y1="25.000000000000007" stroke="black" stroke-width="2px" y2="35.00000000000001" x1="-8.660254037844354"/><line x2="3.730349362740526e-14" y1="35.00000000000001" stroke="black" stroke-width="2px" y2="30.00000000000001" x1="-8.660254037844352"/><line x2="-8.660254037844345" y1="30.00000000000001" stroke="black" stroke-width="2px" y2="25.000000000000007" x1="3.730349362740526e-14"/><line x2="4.440892098500626e-14" y1="25.000000000000007" stroke="black" stroke-width="2px" y2="20.00000000000001" x1="-8.660254037844345"/><line x2="-8.660254037844338" y1="20.00000000000001" stroke="black" stroke-width="2px" y2="15.000000000000005" x1="4.440892098500626e-14"/><line x2="5.1514348342607263e-14" y1="15.000000000000005" stroke="black" stroke-width="2px" y2="10.000000000000009" x1="-8.660254037844338"/><line x2="-8.66025403784433" y1="10.000000000000009" stroke="black" stroke-width="2px" y2="5.0000000000000036" x1="5.1514348342607263e-14"/><line x2="-8.66025403784434" y1="5.0000000000000036" stroke="black" stroke-width="2px" y2="15.000000000000004" x1="-8.66025403784433"/><line x2="-17.32050807568872" y1="15.000000000000004" stroke="black" stroke-width="2px" y2="9.999999999999998" x1="-8.66025403784434"/><line x2="-8.660254037844332" y1="9.999999999999998" stroke="black" stroke-width="2px" y2="5.000000000000002" x1="-17.32050807568872"/><line x2="-8.66025403784433" y1="5.000000000000002" stroke="black" stroke-width="2px" y2="15.000000000000002" x1="-8.660254037844332"/><line x2="5.861977570020827e-14" y1="15.000000000000002" stroke="black" stroke-width="2px" y2="10.000000000000005" x1="-8.66025403784433"/><line x2="-8.660254037844323" y1="10.000000000000005" stroke="black" stroke-width="2px" y2="5.0" x1="5.861977570020827e-14"/><line x2="6.572520305780927e-14" y1="5.0" stroke="black" stroke-width="2px" y2="3.552713678800501e-15" x1="-8.660254037844323"/></g></svg>
