<?xml version="1.0" encoding="UTF-8"?>
<!DOCTYPE svg PUBLIC "-//W3C//DTD SVG 1.1//EN"
    "http://www.w3.org/Graphics/SVG/1.1/DTD/svg11.dtd"><svg xmlns="http://www.w3.org/2000/svg" height="200" width="100" xmlns:xlink="http://www.w3.org/1999/xlink" version="1.11.1"><g transform="translate(70,50)"><line x2="0.0" y1="0.0" stroke="black" stroke-width="2px" y2="10.0" x1="0.0"/><line x2="-8.660254037844387" y1="10.0" stroke="black" stroke-width="2px" y2="5.000000000000002" x1="0.0"/><line x2="-8.660254037844387" y1="5.000000000000002" stroke="black" stroke-width="2px" y2="15.000000000000002" x1="-8.660254037844387"/><line x2="0.0" y1="15.000000000000002" stroke="black" stroke-width="2px" y2="10.000000000000004" x1="-8.660254037844387"/><line x2="0.0" y1="10.000000000000004" stroke="black" stroke-width="2px" y2="20.000000000000004" x1="0.0"/><line x2="-8.660254037844387" y1="20.000000000000004" stroke="black" stroke-width="2px" y2="15.000000000000005" x1="0.0"/><line x2="-3.552713678800501e-15" y1="15.000000000000005" stroke="black" stroke-width="2px" y2="10.0" x1="-8.660254037844387"/><line x2="-8.66025403784439" y1="10.0" stroke="black" stroke-width="2px" y2="5.000000000000002" x1="-3.552713678800501e-15"/><line x2="-8.66025403784439" y1="5.000000000000002" stroke="black" stroke-width="2px" y2="15.000000000000002" x1="-8.66025403784439"/><line x2="-17.320508075688778" y1="15.000000000000002" stroke="black" stroke-width="2px" y2="10.000000000000004" x1="-8.66025403784439"/><line x2="-17.320508075688778" y1="10.000000000000004" stroke="black" stroke-width="2px" y2="20.000000000000004" x1="-17.320508075688778"/><line x2="-25.980762113533167" y1="20.000000000000004" stroke="black" stroke-width="2px" y2="15.000000000000005" x1="-17.320508075688778"/><line x2="-25.980762113533167" y1="15.000000000000005" stroke="black" stroke-width="2px" y2="25.000000000000007" x1="-25.980762113533167"/><line x2="-17.320508075688778" y1="25.000000000000007" stroke="black" stroke-width="2px" y2="20.000000000000007" x1="-25.980762113533167"/><line x2="-17.320508075688778" y1="20.000000000000007" stroke="black" stroke-width="2px" y2="30.000000000000007" x1="-17.320508075688778"/><line x2="-8.66025403784439" y1="30.000000000000007" stroke="black" stroke-width="2px" y2="25.000000000000007" x1="-17.320508075688778"/><line x2="-8.66025403784439" y1="25.000000000000007" stroke="black" stroke-width="2px" y2="35.00000000000001" x1="-8.66025403784439"/><line x2="-3.552713678800501e-15" y1="35.00000000000001" stroke="black" stroke-width="2px" y2="30.000000000000007" x1="-8.66025403784439"/><line x2="-8.660254037844387" y1="30.000000000000007" stroke="black" stroke-width="2px" y2="25.000000000000004" x1="-3.552713678800501e-15"/><line x2="0.0" y1="25.000000000000004" stroke="black" stroke-width="2px" y2="20.000000000000007" x1="-8.660254037844387"/><line x2="0.0" y1="20.000000000000007" stroke="black" stroke-width="2px" y2="30.000000000000007" x1="0.0"/><line x2="-8.660254037844387" y1="30.000000000000007" stroke="black" stroke-width="2px" y2="25.000000000000007" x1="0.0"/><line x2="-8.660254037844387" y1="25.000000000000007" stroke="black" stroke-width="2px" y2="35.00000000000001" x1="-8.660254037844387"/><line x2="0.0" y1="35.00000000000001" stroke="black" stroke-width="2px" y2="30.000000000000007" x1="-8.660254037844387"/><line x2="0.0" y1="30.000000000000007" stroke="black" stroke-width="2px" y2="40.00000000000001" x1="0.0"/><line x2="-8.660254037844387" y1="40.00000000000001" stroke="black" stroke-width="2px" y2="35.00000000000001" x1="0.0"/><line x2="-3.552713678800501e-15" y1="35.00000000000001" stroke="black" stroke-width="2px" y2="30.000000000000004" x1="-8.660254037844387"/><line x2="-8.66025403784439" y1="30.000000000000004" stroke="black" stroke-width="2px" y2="25.000000000000007" x1="-3.552713678800501e-15"/><line x2="-8.66025403784439" y1="25.000000000000007" stroke="black" stroke-width="2px" y2="35.00000000000001" x1="-8.66025403784439"/><line x2="-17.320508075688778" y1="35.00000000000001" stroke="black" stroke-width="2px" y2="30.000000000000007" x1="-8.66025403784439"/><line x2="-8.660254037844394" y1="30.000000000000007" stroke="black" stroke-width="2px" y2="25.000000000000004" x1="-17.320508075688778"/><line x2="-8.660254037844393" y1="25.000000000000004" stroke="black" stroke-width="2px" y2="35.0" x1="-8.660254037844394"/><line x2="-3.552713678800501e-15" y1="35.0" stroke="black" stroke-width="2px" y2="30.000000000000004" x1="-8.660254037844393"/><line x2="-8.660254037844386" y1="30.000000000000004" stroke="black" stroke-width="2px" y2="25.0" x1="-3.552713678800501e-15"/><line x2="3.552713678800501e-15" y1="25.0" stroke="black" stroke-width="2px" y2="20.000000000000004" x1="-8.660254037844386"/><line x2="-8.660254037844378" y1="20.000000000000004" stroke="black" stroke-width="2px" y2="14.999999999999998" x1="3.552713678800501e-15"/><line x2="1.0658141036401503e-14" y1="14.999999999999998" stroke="black" stroke-width="2px" y2="10.000000000000002" x1="-8.660254037844378"/><line x2="-8.660254037844371" y1="10.000000000000002" stroke="black" stroke-width="2px" y2="4.9999999999999964" x1="1.0658141036401503e-14"/><line x2="-8.66025403784438" y1="4.9999999999999964" stroke="black" stroke-width="2px" y2="14.999999999999996" x1="-8.660254037844371"/><line x2="-17.320508075688764" y1="14.999999999999996" stroke="black" stroke-width="2px" y2="9.999999999999991" x1="-8.66025403784438"/><line x2="-17.32050807568877" y1="9.999999999999991" stroke="black" stroke-width="2px" y2="19.999999999999993" x1="-17.320508075688764"/><line x2="-25.980762113533153" y1="19.999999999999993" stroke="black" stroke-width="2px" y2="14.999999999999988" x1="-17.32050807568877"/><line x2="-25.98076211353316" y1="14.999999999999988" stroke="black" stroke-width="2px" y2="24.999999999999986" x1="-25.980762113533153"/><line x2="-17.32050807568877" y1="24.999999999999986" stroke="black" stroke-width="2px" y2="19.999999999999996" x1="-25.98076211353316"/><line x2="-17.320508075688778" y1="19.999999999999996" stroke="black" stroke-width="2px" y2="29.999999999999996" x1="-17.32050807568877"/><line x2="-25.98076211353316" y1="29.999999999999996" stroke="black" stroke-width="2px" y2="24.999999999999993" x1="-17.320508075688778"/><line x2="-17.32050807568877" y1="24.999999999999993" stroke="black" stroke-width="2px" y2="19.999999999999996" x1="-25.98076211353316"/><line x2="-25.980762113533153" y1="19.999999999999996" stroke="black" stroke-width="2px" y2="14.999999999999991" x1="-17.32050807568877"/><line x2="-25.98076211353316" y1="14.999999999999991" stroke="black" stroke-width="2px" y2="24.999999999999993" x1="-25.980762113533153"/><line x2="-34.64101615137754" y1="24.999999999999993" stroke="black" stroke-width="2px" y2="19.999999999999986" x1="-25.98076211353316"/><line x2="-34.64101615137755" y1="19.999999999999986" stroke="black" stroke-width="2px" y2="29.999999999999986" x1="-34.64101615137754"/><line x2="-43.30127018922193" y1="29.999999999999986" stroke="black" stroke-width="2px" y2="24.99999999999998" x1="-34.64101615137755"/><line x2="-43.30127018922194" y1="24.99999999999998" stroke="black" stroke-width="2px" y2="34.99999999999998" x1="-43.30127018922193"/><line x2="-34.64101615137755" y1="34.99999999999998" stroke="black" stroke-width="2px" y2="29.99999999999999" x1="-43.30127018922194"/><line x2="-34.641016151377556" y1="29.99999999999999" stroke="black" stroke-width="2px" y2="39.999999999999986" x1="-34.64101615137755"/><line x2="-43.30127018922194" y1="39.999999999999986" stroke="black" stroke-width="2px" y2="34.99999999999998" x1="-34.641016151377556"/><line x2="-34.64101615137755" y1="34.99999999999998" stroke="black" stroke-width="2px" y2="29.999999999999982" x1="-43.30127018922194"/><line x2="-43.30127018922193" y1="29.999999999999982" stroke="black" stroke-width="2px" y2="24.99999999999998" x1="-34.64101615137755"/><line x2="-43.30127018922194" y1="24.99999999999998" stroke="black" stroke-width="2px" y2="34.99999999999998" x1="-43.30127018922193"/><line x2="-51.96152422706632" y1="34.99999999999998" stroke="black" stroke-width="2px" y2="29.99999999999997" x1="-43.30127018922194"/><line x2="-51.96152422706633" y1="29.99999999999997" stroke="black" stroke-width="2px" y2="39.99999999999997" x1="-51.96152422706632"/><line x2="-60.62177826491071" y1="39.99999999999997" stroke="black" stroke-width="2px" y2="34.999999999999964" x1="-51.96152422706633"/><line x2="-60.621778264910716" y1="34.999999999999964" stroke="black" stroke-width="2px" y2="44.999999999999964" x1="-60.62177826491071"/><line x2="-51.96152422706633" y1="44.999999999999964" stroke="black" stroke-width="2px" y2="39.99999999999997" x1="-60.621778264910716"/><line x2="-51.961524227066334" y1="39.99999999999997" stroke="black" stroke-width="2px" y2="49.99999999999997" x1="-51.96152422706633"/><line x2="-43.301270189221945" y1="49.99999999999997" stroke="black" stroke-width="2px" y2="44.99999999999998" x1="-51.961524227066334"/><line x2="-43.30127018922195" y1="44.99999999999998" stroke="black" stroke-width="2px" y2="54.99999999999998" x1="-43.301270189221945"/><line x2="-34.64101615137756" y1="54.99999999999998" stroke="black" stroke-width="2px" y2="49.999999999999986" x1="-43.30127018922195"/><line x2="-43.30127018922194" y1="49.999999999999986" stroke="black" stroke-width="2px" y2="44.99999999999997" x1="-34.64101615137756"/><line x2="-34.64101615137755" y1="44.99999999999997" stroke="black" stroke-width="2px" y2="39.99999999999998" x1="-43.30127018922194"/><line x2="-34.641016151377556" y1="39.99999999999998" stroke="black" stroke-width="2px" y2="49.99999999999998" x1="-34.64101615137755"/><line x2="-43.30127018922194" y1="49.99999999999998" stroke="black" stroke-width="2px" y2="44.99999999999997" x1="-34.641016151377556"/><line x2="-43.301270189221945" y1="44.99999999999997" stroke="black" stroke-width="2px" y2="54.99999999999997" x1="-43.30127018922194"/><line x2="-34.641016151377556" y1="54.99999999999997" stroke="black" stroke-width="2px" y2="49.99999999999998" x1="-43.301270189221945"/><line x2="-34.64101615137756" y1="49.99999999999998" stroke="black" stroke-width="2px" y2="59.99999999999998" x1="-34.641016151377556"/><line x2="-25.980762113533174" y1="59.99999999999998" stroke="black" stroke-width="2px" y2="54.999999999999986" x1="-34.64101615137756"/><line x2="-25.98076211353318" y1="54.999999999999986" stroke="black" stroke-width="2px" y2="64.99999999999999" x1="-25.980762113533174"/><line x2="-17.320508075688792" y1="64.99999999999999" stroke="black" stroke-width="2px" y2="59.99999999999999" x1="-25.98076211353318"/><line x2="-25.98076211353317" y1="59.99999999999999" stroke="black" stroke-width="2px" y2="54.99999999999998" x1="-17.320508075688792"/><line x2="-17.320508075688778" y1="54.99999999999998" stroke="black" stroke-width="2px" y2="49.999999999999986" x1="-25.98076211353317"/><line x2="-17.320508075688785" y1="49.999999999999986" stroke="black" stroke-width="2px" y2="59.999999999999986" x1="-17.320508075688778"/><line x2="-25.980762113533167" y1="59.999999999999986" stroke="black" stroke-width="2px" y2="54.99999999999998" x1="-17.320508075688785"/><line x2="-25.980762113533174" y1="54.99999999999998" stroke="black" stroke-width="2px" y2="64.99999999999997" x1="-25.980762113533167"/><line x2="-17.320508075688785" y1="64.99999999999997" stroke="black" stroke-width="2px" y2="59.99999999999998" x1="-25.980762113533174"/><line x2="-17.320508075688792" y1="59.99999999999998" stroke="black" stroke-width="2px" y2="69.99999999999997" x1="-17.320508075688785"/><line x2="-8.660254037844402" y1="69.99999999999997" stroke="black" stroke-width="2px" y2="64.99999999999999" x1="-17.320508075688792"/><line x2="-8.66025403784441" y1="64.99999999999999" stroke="black" stroke-width="2px" y2="74.99999999999999" x1="-8.660254037844402"/><line x2="-1.9539925233402755e-14" y1="74.99999999999999" stroke="black" stroke-width="2px" y2="70.0" x1="-8.66025403784441"/><line x2="-8.660254037844398" y1="70.0" stroke="black" stroke-width="2px" y2="64.99999999999999" x1="-1.9539925233402755e-14"/><line x2="-7.105427357601002e-15" y1="64.99999999999999" stroke="black" stroke-width="2px" y2="59.99999999999999" x1="-8.660254037844398"/><line x2="-8.660254037844386" y1="59.99999999999999" stroke="black" stroke-width="2px" y2="54.99999999999998" x1="-7.105427357601002e-15"/><line x2="5.329070518200751e-15" y1="54.99999999999998" stroke="black" stroke-width="2px" y2="49.999999999999986" x1="-8.660254037844386"/><line x2="-8.660254037844373" y1="49.999999999999986" stroke="black" stroke-width="2px" y2="44.99999999999997" x1="5.329070518200751e-15"/><line x2="-8.660254037844393" y1="44.99999999999997" stroke="black" stroke-width="2px" y2="54.99999999999997" x1="-8.660254037844373"/><line x2="-17.32050807568877" y1="54.99999999999997" stroke="black" stroke-width="2px" y2="49.99999999999996" x1="-8.660254037844393"/><line x2="-8.66025403784438" y1="49.99999999999996" stroke="black" stroke-width="2px" y2="44.999999999999964" x1="-17.32050807568877"/><line x2="-8.660254037844389" y1="44.999999999999964" stroke="black" stroke-width="2px" y2="54.999999999999964" x1="-8.66025403784438"/><line x2="1.7763568394002505e-15" y1="54.999999999999964" stroke="black" stroke-width="2px" y2="49.99999999999997" x1="-8.660254037844389"/><line x2="-8.660254037844377" y1="49.99999999999997" stroke="black" stroke-width="2px" y2="44.99999999999996" x1="1.7763568394002505e-15"/><line x2="1.4210854715202004e-14" y1="44.99999999999996" stroke="black" stroke-width="2px" y2="39.999999999999964" x1="-8.660254037844377"/><line x2="5.329070518200751e-15" y1="39.999999999999964" stroke="black" stroke-width="2px" y2="49.999999999999964" x1="1.4210854715202004e-14"/><line x2="-8.660254037844377" y1="49.999999999999964" stroke="black" stroke-width="2px" y2="44.99999999999996" x1="5.329070518200751e-15"/><line x2="-8.660254037844386" y1="44.99999999999996" stroke="black" stroke-width="2px" y2="54.99999999999996" x1="-8.660254037844377"/><line x2="5.329070518200751e-15" y1="54.99999999999996" stroke="black" stroke-width="2px" y2="49.999999999999964" x1="-8.660254037844386"/><line x2="-3.552713678800501e-15" y1="49.999999999999964" stroke="black" stroke-width="2px" y2="59.999999999999964" x1="5.329070518200751e-15"/><line x2="-8.660254037844386" y1="59.999999999999964" stroke="black" stroke-width="2px" y2="54.99999999999996" x1="-3.552713678800501e-15"/><line x2="3.552713678800501e-15" y1="54.99999999999996" stroke="black" stroke-width="2px" y2="49.99999999999996" x1="-8.660254037844386"/><line x2="-8.660254037844378" y1="49.99999999999996" stroke="black" stroke-width="2px" y2="44.99999999999995" x1="3.552713678800501e-15"/><line x2="-8.660254037844387" y1="44.99999999999995" stroke="black" stroke-width="2px" y2="54.99999999999995" x1="-8.660254037844378"/><line x2="-17.32050807568877" y1="54.99999999999995" stroke="black" stroke-width="2px" y2="49.99999999999994" x1="-8.660254037844387"/><line x2="-17.320508075688778" y1="49.99999999999994" stroke="black" stroke-width="2px" y2="59.99999999999994" x1="-17.32050807568877"/><line x2="-25.98076211353316" y1="59.99999999999994" stroke="black" stroke-width="2px" y2="54.999999999999936" x1="-17.320508075688778"/><line x2="-25.980762113533167" y1="54.999999999999936" stroke="black" stroke-width="2px" y2="64.99999999999994" x1="-25.98076211353316"/><line x2="-17.320508075688778" y1="64.99999999999994" stroke="black" stroke-width="2px" y2="59.99999999999995" x1="-25.980762113533167"/><line x2="-17.320508075688785" y1="59.99999999999995" stroke="black" stroke-width="2px" y2="69.99999999999994" x1="-17.320508075688778"/><line x2="-8.660254037844394" y1="69.99999999999994" stroke="black" stroke-width="2px" y2="64.99999999999996" x1="-17.320508075688785"/><line x2="-8.660254037844403" y1="64.99999999999996" stroke="black" stroke-width="2px" y2="74.99999999999996" x1="-8.660254037844394"/><line x2="-1.2434497875801753e-14" y1="74.99999999999996" stroke="black" stroke-width="2px" y2="69.99999999999997" x1="-8.660254037844403"/><line x2="-8.66025403784439" y1="69.99999999999997" stroke="black" stroke-width="2px" y2="64.99999999999996" x1="-1.2434497875801753e-14"/><line x2="0.0" y1="64.99999999999996" stroke="black" stroke-width="2px" y2="59.999999999999964" x1="-8.66025403784439"/><line x2="-8.881784197001252e-15" y1="59.999999999999964" stroke="black" stroke-width="2px" y2="69.99999999999997" x1="0.0"/><line x2="-8.66025403784439" y1="69.99999999999997" stroke="black" stroke-width="2px" y2="64.99999999999997" x1="-8.881784197001252e-15"/><line x2="-8.6602540378444" y1="64.99999999999997" stroke="black" stroke-width="2px" y2="74.99999999999997" x1="-8.66025403784439"/><line x2="-8.881784197001252e-15" y1="74.99999999999997" stroke="black" stroke-width="2px" y2="69.99999999999999" x1="-8.6602540378444"/><line x2="-1.7763568394002505e-14" y1="69.99999999999999" stroke="black" stroke-width="2px" y2="79.99999999999999" x1="-8.881784197001252e-15"/><line x2="-8.6602540378444" y1="79.99999999999999" stroke="black" stroke-width="2px" y2="74.99999999999999" x1="-1.7763568394002505e-14"/><line x2="-1.0658141036401503e-14" y1="74.99999999999999" stroke="black" stroke-width="2px" y2="69.99999999999999" x1="-8.6602540378444"/><line x2="-8.660254037844393" y1="69.99999999999999" stroke="black" stroke-width="2px" y2="64.99999999999999" x1="-1.0658141036401503e-14"/><line x2="-8.660254037844402" y1="64.99999999999999" stroke="black" stroke-width="2px" y2="74.99999999999999" x1="-8.660254037844393"/><line x2="-17.320508075688785" y1="74.99999999999999" stroke="black" stroke-width="2px" y2="69.99999999999999" x1="-8.660254037844402"/><line x2="-8.660254037844396" y1="69.99999999999999" stroke="black" stroke-width="2px" y2="64.99999999999999" x1="-17.320508075688785"/><line x2="-8.660254037844394" y1="64.99999999999999" stroke="black" stroke-width="2px" y2="74.99999999999999" x1="-8.660254037844396"/><line x2="-5.329070518200751e-15" y1="74.99999999999999" stroke="black" stroke-width="2px" y2="69.99999999999999" x1="-8.660254037844394"/><line x2="-8.660254037844387" y1="69.99999999999999" stroke="black" stroke-width="2px" y2="64.99999999999999" x1="-5.329070518200751e-15"/><line x2="1.7763568394002505e-15" y1="64.99999999999999" stroke="black" stroke-width="2px" y2="59.999999999999986" x1="-8.660254037844387"/><line x2="-8.66025403784438" y1="59.999999999999986" stroke="black" stroke-width="2px" y2="54.99999999999998" x1="1.7763568394002505e-15"/><line x2="8.881784197001252e-15" y1="54.99999999999998" stroke="black" stroke-width="2px" y2="49.999999999999986" x1="-8.66025403784438"/><line x2="-8.660254037844373" y1="49.999999999999986" stroke="black" stroke-width="2px" y2="44.99999999999998" x1="8.881784197001252e-15"/><line x2="-8.660254037844382" y1="44.99999999999998" stroke="black" stroke-width="2px" y2="54.99999999999998" x1="-8.660254037844373"/><line x2="-17.320508075688764" y1="54.99999999999998" stroke="black" stroke-width="2px" y2="49.99999999999997" x1="-8.660254037844382"/><line x2="-17.32050807568877" y1="49.99999999999997" stroke="black" stroke-width="2px" y2="59.99999999999997" x1="-17.320508075688764"/><line x2="-25.980762113533153" y1="59.99999999999997" stroke="black" stroke-width="2px" y2="54.999999999999964" x1="-17.32050807568877"/><line x2="-25.98076211353316" y1="54.999999999999964" stroke="black" stroke-width="2px" y2="64.99999999999997" x1="-25.980762113533153"/><line x2="-17.32050807568877" y1="64.99999999999997" stroke="black" stroke-width="2px" y2="59.99999999999998" x1="-25.98076211353316"/><line x2="-17.320508075688778" y1="59.99999999999998" stroke="black" stroke-width="2px" y2="69.99999999999997" x1="-17.32050807568877"/><line x2="-25.98076211353316" y1="69.99999999999997" stroke="black" stroke-width="2px" y2="64.99999999999997" x1="-17.320508075688778"/><line x2="-17.32050807568877" y1="64.99999999999997" stroke="black" stroke-width="2px" y2="59.99999999999997" x1="-25.98076211353316"/><line x2="-25.980762113533153" y1="59.99999999999997" stroke="black" stroke-width="2px" y2="54.999999999999964" x1="-17.32050807568877"/><line x2="-25.98076211353316" y1="54.999999999999964" stroke="black" stroke-width="2px" y2="64.99999999999997" x1="-25.980762113533153"/><line x2="-34.64101615137754" y1="64.99999999999997" stroke="black" stroke-width="2px" y2="59.999999999999964" x1="-25.98076211353316"/><line x2="-25.980762113533153" y1="59.999999999999964" stroke="black" stroke-width="2px" y2="54.99999999999997" x1="-34.64101615137754"/><line x2="-25.98076211353315" y1="54.99999999999997" stroke="black" stroke-width="2px" y2="64.99999999999997" x1="-25.980762113533153"/><line x2="-17.32050807568876" y1="64.99999999999997" stroke="black" stroke-width="2px" y2="59.99999999999997" x1="-25.98076211353315"/><line x2="-25.980762113533142" y1="59.99999999999997" stroke="black" stroke-width="2px" y2="54.999999999999964" x1="-17.32050807568876"/><line x2="-17.320508075688753" y1="54.999999999999964" stroke="black" stroke-width="2px" y2="49.99999999999997" x1="-25.980762113533142"/><line x2="-17.32050807568875" y1="49.99999999999997" stroke="black" stroke-width="2px" y2="59.99999999999997" x1="-17.320508075688753"/><line x2="-25.98076211353314" y1="59.99999999999997" stroke="black" stroke-width="2px" y2="54.99999999999998" x1="-17.32050807568875"/><line x2="-25.980762113533135" y1="54.99999999999998" stroke="black" stroke-width="2px" y2="64.99999999999997" x1="-25.98076211353314"/><line x2="-17.320508075688746" y1="64.99999999999997" stroke="black" stroke-width="2px" y2="59.99999999999997" x1="-25.980762113533135"/><line x2="-17.320508075688743" y1="59.99999999999997" stroke="black" stroke-width="2px" y2="69.99999999999997" x1="-17.320508075688746"/><line x2="-8.660254037844354" y1="69.99999999999997" stroke="black" stroke-width="2px" y2="64.99999999999997" x1="-17.320508075688743"/><line x2="-8.660254037844352" y1="64.99999999999997" stroke="black" stroke-width="2px" y2="74.99999999999997" x1="-8.660254037844354"/><line x2="3.730349362740526e-14" y1="74.99999999999997" stroke="black" stroke-width="2px" y2="69.99999999999997" x1="-8.660254037844352"/><line x2="-8.660254037844345" y1="69.99999999999997" stroke="black" stroke-width="2px" y2="64.99999999999997" x1="3.730349362740526e-14"/><line x2="4.440892098500626e-14" y1="64.99999999999997" stroke="black" stroke-width="2px" y2="59.99999999999997" x1="-8.660254037844345"/><line x2="-8.660254037844338" y1="59.99999999999997" stroke="black" stroke-width="2px" y2="54.999999999999964" x1="4.440892098500626e-14"/><line x2="5.1514348342607263e-14" y1="54.999999999999964" stroke="black" stroke-width="2px" y2="49.99999999999997" x1="-8.660254037844338"/><line x2="-8.66025403784433" y1="49.99999999999997" stroke="black" stroke-width="2px" y2="44.999999999999964" x1="5.1514348342607263e-14"/><line x2="-8.66025403784434" y1="44.999999999999964" stroke="black" stroke-width="2px" y2="54.999999999999964" x1="-8.66025403784433"/><line x2="-17.32050807568872" y1="54.999999999999964" stroke="black" stroke-width="2px" y2="49.99999999999996" x1="-8.66025403784434"/><line x2="-8.660254037844332" y1="49.99999999999996" stroke="black" stroke-width="2px" y2="44.99999999999996" x1="-17.32050807568872"/><line x2="-8.66025403784433" y1="44.99999999999996" stroke="black" stroke-width="2px" y2="54.99999999999996" x1="-8.660254037844332"/><line x2="5.861977570020827e-14" y1="54.99999999999996" stroke="black" stroke-width="2px" y2="49.99999999999996" x1="-8.66025403784433"/><line x2="-8.660254037844323" y1="49.99999999999996" stroke="black" stroke-width="2px" y2="44.99999999999995" x1="5.861977570020827e-14"/><line x2="6.572520305780927e-14" y1="44.99999999999995" stroke="black" stroke-width="2px" y2="39.99999999999996" x1="-8.660254037844323"/><line x2="-8.660254037844316" y1="39.99999999999996" stroke="black" stroke-width="2px" y2="34.99999999999995" x1="6.572520305780927e-14"/><line x2="7.283063041541027e-14" y1="34.99999999999995" stroke="black" stroke-width="2px" y2="29.999999999999954" x1="-8.660254037844316"/><line x2="-8.66025403784431" y1="29.999999999999954" stroke="black" stroke-width="2px" y2="24.99999999999995" x1="7.283063041541027e-14"/><line x2="-8.660254037844318" y1="24.99999999999995" stroke="black" stroke-width="2px" y2="34.99999999999995" x1="-8.66025403784431"/><line x2="-17.3205080756887" y1="34.99999999999995" stroke="black" stroke-width="2px" y2="29.999999999999943" x1="-8.660254037844318"/><line x2="-8.660254037844311" y1="29.999999999999943" stroke="black" stroke-width="2px" y2="24.999999999999947" x1="-17.3205080756887"/><line x2="-8.66025403784431" y1="24.999999999999947" stroke="black" stroke-width="2px" y2="34.99999999999994" x1="-8.660254037844311"/><line x2="7.993605777301127e-14" y1="34.99999999999994" stroke="black" stroke-width="2px" y2="29.999999999999947" x1="-8.66025403784431"/><line x2="-8.660254037844302" y1="29.999999999999947" stroke="black" stroke-width="2px" y2="24.999999999999943" x1="7.993605777301127e-14"/><line x2="8.704148513061227e-14" y1="24.999999999999943" stroke="black" stroke-width="2px" y2="19.999999999999947" x1="-8.660254037844302"/><line x2="-8.660254037844295" y1="19.999999999999947" stroke="black" stroke-width="2px" y2="14.999999999999941" x1="8.704148513061227e-14"/><line x2="9.414691248821327e-14" y1="14.999999999999941" stroke="black" stroke-width="2px" y2="9.999999999999945" x1="-8.660254037844295"/><line x2="-8.660254037844288" y1="9.999999999999945" stroke="black" stroke-width="2px" y2="4.99999999999994" x1="9.414691248821327e-14"/><line x2="-8.660254037844297" y1="4.99999999999994" stroke="black" stroke-width="2px" y2="14.99999999999994" x1="-8.660254037844288"/><line x2="-17.32050807568868" y1="14.99999999999994" stroke="black" stroke-width="2px" y2="9.999999999999934" x1="-8.660254037844297"/><line x2="-17.320508075688686" y1="9.999999999999934" stroke="black" stroke-width="2px" y2="19.999999999999936" x1="-17.32050807568868"/><line x2="-25.980762113533068" y1="19.999999999999936" stroke="black" stroke-width="2px" y2="14.99999999999993" x1="-17.320508075688686"/><line x2="-25.980762113533075" y1="14.99999999999993" stroke="black" stroke-width="2px" y2="24.99999999999993" x1="-25.980762113533068"/><line x2="-17.320508075688686" y1="24.99999999999993" stroke="black" stroke-width="2px" y2="19.99999999999994" x1="-25.980762113533075"/><line x2="-17.320508075688693" y1="19.99999999999994" stroke="black" stroke-width="2px" y2="29.99999999999994" x1="-17.320508075688686"/><line x2="-25.980762113533075" y1="29.99999999999994" stroke="black" stroke-width="2px" y2="24.999999999999936" x1="-17.320508075688693"/><line x2="-17.320508075688686" y1="24.999999999999936" stroke="black" stroke-width="2px" y2="19.99999999999994" x1="-25.980762113533075"/><line x2="-25.980762113533068" y1="19.99999999999994" stroke="black" stroke-width="2px" y2="14.999999999999934" x1="-17.320508075688686"/><line x2="-25.980762113533075" y1="14.999999999999934" stroke="black" stroke-width="2px" y2="24.999999999999936" x1="-25.980762113533068"/><line x2="-34.64101615137746" y1="24.999999999999936" stroke="black" stroke-width="2px" y2="19.99999999999993" x1="-25.980762113533075"/><line x2="-34.641016151377464" y1="19.99999999999993" stroke="black" stroke-width="2px" y2="29.99999999999993" x1="-34.64101615137746"/><line x2="-43.301270189221846" y1="29.99999999999993" stroke="black" stroke-width="2px" y2="24.999999999999922" x1="-34.641016151377464"/><line x2="-43.30127018922185" y1="24.999999999999922" stroke="black" stroke-width="2px" y2="34.99999999999992" x1="-43.301270189221846"/><line x2="-34.641016151377464" y1="34.99999999999992" stroke="black" stroke-width="2px" y2="29.999999999999932" x1="-43.30127018922185"/><line x2="-34.64101615137747" y1="29.999999999999932" stroke="black" stroke-width="2px" y2="39.99999999999993" x1="-34.641016151377464"/><line x2="-43.30127018922185" y1="39.99999999999993" stroke="black" stroke-width="2px" y2="34.99999999999992" x1="-34.64101615137747"/><line x2="-34.641016151377464" y1="34.99999999999992" stroke="black" stroke-width="2px" y2="29.999999999999925" x1="-43.30127018922185"/><line x2="-43.301270189221846" y1="29.999999999999925" stroke="black" stroke-width="2px" y2="24.999999999999922" x1="-34.641016151377464"/><line x2="-43.30127018922185" y1="24.999999999999922" stroke="black" stroke-width="2px" y2="34.99999999999992" x1="-43.301270189221846"/><line x2="-51.961524227066235" y1="34.99999999999992" stroke="black" stroke-width="2px" y2="29.999999999999915" x1="-43.30127018922185"/><line x2="-51.96152422706624" y1="29.999999999999915" stroke="black" stroke-width="2px" y2="39.999999999999915" x1="-51.961524227066235"/><line x2="-60.621778264910624" y1="39.999999999999915" stroke="black" stroke-width="2px" y2="34.99999999999991" x1="-51.96152422706624"/><line x2="-60.62177826491063" y1="34.99999999999991" stroke="black" stroke-width="2px" y2="44.99999999999991" x1="-60.621778264910624"/><line x2="-51.96152422706624" y1="44.99999999999991" stroke="black" stroke-width="2px" y2="39.999999999999915" x1="-60.62177826491063"/><line x2="-51.96152422706625" y1="39.999999999999915" stroke="black" stroke-width="2px" y2="49.999999999999915" x1="-51.96152422706624"/><line x2="-43.30127018922186" y1="49.999999999999915" stroke="black" stroke-width="2px" y2="44.99999999999992" x1="-51.96152422706625"/><line x2="-43.30127018922187" y1="44.99999999999992" stroke="black" stroke-width="2px" y2="54.99999999999992" x1="-43.30127018922186"/><line x2="-34.64101615137748" y1="54.99999999999992" stroke="black" stroke-width="2px" y2="49.99999999999993" x1="-43.30127018922187"/><line x2="-43.30127018922185" y1="49.99999999999993" stroke="black" stroke-width="2px" y2="44.999999999999915" x1="-34.64101615137748"/><line x2="-34.641016151377464" y1="44.999999999999915" stroke="black" stroke-width="2px" y2="39.99999999999992" x1="-43.30127018922185"/><line x2="-34.64101615137747" y1="39.99999999999992" stroke="black" stroke-width="2px" y2="49.99999999999992" x1="-34.641016151377464"/><line x2="-43.30127018922185" y1="49.99999999999992" stroke="black" stroke-width="2px" y2="44.999999999999915" x1="-34.64101615137747"/><line x2="-43.30127018922186" y1="44.999999999999915" stroke="black" stroke-width="2px" y2="54.999999999999915" x1="-43.30127018922185"/><line x2="-34.64101615137747" y1="54.999999999999915" stroke="black" stroke-width="2px" y2="49.99999999999992" x1="-43.30127018922186"/><line x2="-34.64101615137748" y1="49.99999999999992" stroke="black" stroke-width="2px" y2="59.99999999999992" x1="-34.64101615137747"/><line x2="-43.30127018922186" y1="59.99999999999992" stroke="black" stroke-width="2px" y2="54.999999999999915" x1="-34.64101615137748"/><line x2="-34.64101615137747" y1="54.999999999999915" stroke="black" stroke-width="2px" y2="49.999999999999915" x1="-43.30127018922186"/><line x2="-43.30127018922185" y1="49.999999999999915" stroke="black" stroke-width="2px" y2="44.99999999999991" x1="-34.64101615137747"/><line x2="-43.30127018922186" y1="44.99999999999991" stroke="black" stroke-width="2px" y2="54.99999999999991" x1="-43.30127018922185"/><line x2="-51.96152422706624" y1="54.99999999999991" stroke="black" stroke-width="2px" y2="49.9999999999999" x1="-43.30127018922186"/><line x2="-43.30127018922185" y1="49.9999999999999" stroke="black" stroke-width="2px" y2="44.9999999999999" x1="-51.96152422706624"/><line x2="-43.30127018922185" y1="44.9999999999999" stroke="black" stroke-width="2px" y2="54.9999999999999" x1="-43.30127018922185"/><line x2="-34.641016151377464" y1="54.9999999999999" stroke="black" stroke-width="2px" y2="49.9999999999999" x1="-43.30127018922185"/><line x2="-43.301270189221846" y1="49.9999999999999" stroke="black" stroke-width="2px" y2="44.99999999999989" x1="-34.641016151377464"/><line x2="-34.64101615137746" y1="44.99999999999989" stroke="black" stroke-width="2px" y2="39.9999999999999" x1="-43.301270189221846"/><line x2="-43.30127018922184" y1="39.9999999999999" stroke="black" stroke-width="2px" y2="34.99999999999989" x1="-34.64101615137746"/><line x2="-34.64101615137745" y1="34.99999999999989" stroke="black" stroke-width="2px" y2="29.999999999999897" x1="-43.30127018922184"/><line x2="-43.30127018922183" y1="29.999999999999897" stroke="black" stroke-width="2px" y2="24.999999999999893" x1="-34.64101615137745"/><line x2="-43.30127018922184" y1="24.999999999999893" stroke="black" stroke-width="2px" y2="34.99999999999989" x1="-43.30127018922183"/><line x2="-51.96152422706622" y1="34.99999999999989" stroke="black" stroke-width="2px" y2="29.999999999999886" x1="-43.30127018922184"/><line x2="-51.96152422706623" y1="29.999999999999886" stroke="black" stroke-width="2px" y2="39.999999999999886" x1="-51.96152422706622"/><line x2="-60.62177826491061" y1="39.999999999999886" stroke="black" stroke-width="2px" y2="34.99999999999988" x1="-51.96152422706623"/><line x2="-60.62177826491062" y1="34.99999999999988" stroke="black" stroke-width="2px" y2="44.99999999999988" x1="-60.62177826491061"/><line x2="-51.96152422706623" y1="44.99999999999988" stroke="black" stroke-width="2px" y2="39.999999999999886" x1="-60.62177826491062"/><line x2="-51.961524227066235" y1="39.999999999999886" stroke="black" stroke-width="2px" y2="49.999999999999886" x1="-51.96152422706623"/><line x2="-60.62177826491062" y1="49.999999999999886" stroke="black" stroke-width="2px" y2="44.99999999999988" x1="-51.961524227066235"/><line x2="-51.96152422706623" y1="44.99999999999988" stroke="black" stroke-width="2px" y2="39.999999999999886" x1="-60.62177826491062"/><line x2="-60.62177826491061" y1="39.999999999999886" stroke="black" stroke-width="2px" y2="34.99999999999988" x1="-51.96152422706623"/><line x2="-60.62177826491062" y1="34.99999999999988" stroke="black" stroke-width="2px" y2="44.99999999999988" x1="-60.62177826491061"/><line x2="-69.282032302755" y1="44.99999999999988" stroke="black" stroke-width="2px" y2="39.99999999999987" x1="-60.62177826491062"/><line x2="-60.62177826491061" y1="39.99999999999987" stroke="black" stroke-width="2px" y2="34.99999999999987" x1="-69.282032302755"/><line x2="-60.62177826491061" y1="34.99999999999987" stroke="black" stroke-width="2px" y2="44.99999999999987" x1="-60.62177826491061"/><line x2="-51.96152422706622" y1="44.99999999999987" stroke="black" stroke-width="2px" y2="39.99999999999987" x1="-60.62177826491061"/><line x2="-60.6217782649106" y1="39.99999999999987" stroke="black" stroke-width="2px" y2="34.999999999999865" x1="-51.96152422706622"/><line x2="-51.961524227066214" y1="34.999999999999865" stroke="black" stroke-width="2px" y2="29.99999999999987" x1="-60.6217782649106"/><line x2="-51.961524227066214" y1="29.99999999999987" stroke="black" stroke-width="2px" y2="39.99999999999987" x1="-51.961524227066214"/><line x2="-60.6217782649106" y1="39.99999999999987" stroke="black" stroke-width="2px" y2="34.99999999999988" x1="-51.961524227066214"/><line x2="-60.6217782649106" y1="34.99999999999988" stroke="black" stroke-width="2px" y2="44.99999999999988" x1="-60.6217782649106"/><line x2="-51.961524227066214" y1="44.99999999999988" stroke="black" stroke-width="2px" y2="39.999999999999886" x1="-60.6217782649106"/><line x2="-51.961524227066214" y1="39.999999999999886" stroke="black" stroke-width="2px" y2="49.999999999999886" x1="-51.961524227066214"/><line x2="-43.301270189221825" y1="49.999999999999886" stroke="black" stroke-width="2px" y2="44.999999999999886" x1="-51.961524227066214"/><line x2="-43.301270189221825" y1="44.999999999999886" stroke="black" stroke-width="2px" y2="54.999999999999886" x1="-43.301270189221825"/><line x2="-34.641016151377436" y1="54.999999999999886" stroke="black" stroke-width="2px" y2="49.999999999999886" x1="-43.301270189221825"/><line x2="-43.30127018922182" y1="49.999999999999886" stroke="black" stroke-width="2px" y2="44.99999999999988" x1="-34.641016151377436"/><line x2="-34.64101615137743" y1="44.99999999999988" stroke="black" stroke-width="2px" y2="39.999999999999886" x1="-43.30127018922182"/><line x2="-43.30127018922181" y1="39.999999999999886" stroke="black" stroke-width="2px" y2="34.99999999999988" x1="-34.64101615137743"/><line x2="-34.64101615137742" y1="34.99999999999988" stroke="black" stroke-width="2px" y2="29.999999999999883" x1="-43.30127018922181"/><line x2="-43.3012701892218" y1="29.999999999999883" stroke="black" stroke-width="2px" y2="24.99999999999988" x1="-34.64101615137742"/><line x2="-43.30127018922181" y1="24.99999999999988" stroke="black" stroke-width="2px" y2="34.99999999999988" x1="-43.3012701892218"/><line x2="-51.96152422706619" y1="34.99999999999988" stroke="black" stroke-width="2px" y2="29.999999999999872" x1="-43.30127018922181"/><line x2="-43.3012701892218" y1="29.999999999999872" stroke="black" stroke-width="2px" y2="24.999999999999876" x1="-51.96152422706619"/><line x2="-43.3012701892218" y1="24.999999999999876" stroke="black" stroke-width="2px" y2="34.99999999999987" x1="-43.3012701892218"/><line x2="-34.641016151377414" y1="34.99999999999987" stroke="black" stroke-width="2px" y2="29.999999999999876" x1="-43.3012701892218"/><line x2="-43.301270189221796" y1="29.999999999999876" stroke="black" stroke-width="2px" y2="24.999999999999872" x1="-34.641016151377414"/><line x2="-34.64101615137741" y1="24.999999999999872" stroke="black" stroke-width="2px" y2="19.999999999999876" x1="-43.301270189221796"/><line x2="-34.64101615137741" y1="19.999999999999876" stroke="black" stroke-width="2px" y2="29.999999999999876" x1="-34.64101615137741"/><line x2="-43.301270189221796" y1="29.999999999999876" stroke="black" stroke-width="2px" y2="24.999999999999883" x1="-34.64101615137741"/><line x2="-43.301270189221796" y1="24.999999999999883" stroke="black" stroke-width="2px" y2="34.999999999999886" x1="-43.301270189221796"/><line x2="-34.64101615137741" y1="34.999999999999886" stroke="black" stroke-width="2px" y2="29.99999999999989" x1="-43.301270189221796"/><line x2="-34.64101615137741" y1="29.99999999999989" stroke="black" stroke-width="2px" y2="39.999999999999886" x1="-34.64101615137741"/><line x2="-43.301270189221796" y1="39.999999999999886" stroke="black" stroke-width="2px" y2="34.99999999999989" x1="-34.64101615137741"/><line x2="-34.641016151377414" y1="34.99999999999989" stroke="black" stroke-width="2px" y2="29.99999999999988" x1="-43.301270189221796"/><line x2="-43.3012701892218" y1="29.99999999999988" stroke="black" stroke-width="2px" y2="24.999999999999886" x1="-34.641016151377414"/><line x2="-43.3012701892218" y1="24.999999999999886" stroke="black" stroke-width="2px" y2="34.999999999999886" x1="-43.3012701892218"/><line x2="-51.96152422706619" y1="34.999999999999886" stroke="black" stroke-width="2px" y2="29.999999999999893" x1="-43.3012701892218"/><line x2="-51.96152422706619" y1="29.999999999999893" stroke="black" stroke-width="2px" y2="39.99999999999989" x1="-51.96152422706619"/><line x2="-60.62177826491058" y1="39.99999999999989" stroke="black" stroke-width="2px" y2="34.9999999999999" x1="-51.96152422706619"/><line x2="-60.62177826491058" y1="34.9999999999999" stroke="black" stroke-width="2px" y2="44.9999999999999" x1="-60.62177826491058"/><line x2="-51.96152422706619" y1="44.9999999999999" stroke="black" stroke-width="2px" y2="39.9999999999999" x1="-60.62177826491058"/><line x2="-51.96152422706619" y1="39.9999999999999" stroke="black" stroke-width="2px" y2="49.9999999999999" x1="-51.96152422706619"/><line x2="-43.3012701892218" y1="49.9999999999999" stroke="black" stroke-width="2px" y2="44.9999999999999" x1="-51.96152422706619"/><line x2="-43.3012701892218" y1="44.9999999999999" stroke="black" stroke-width="2px" y2="54.9999999999999" x1="-43.3012701892218"/><line x2="-34.641016151377414" y1="54.9999999999999" stroke="black" stroke-width="2px" y2="49.9999999999999" x1="-43.3012701892218"/><line x2="-43.301270189221796" y1="49.9999999999999" stroke="black" stroke-width="2px" y2="44.99999999999989" x1="-34.641016151377414"/><line x2="-34.64101615137741" y1="44.99999999999989" stroke="black" stroke-width="2px" y2="39.9999999999999" x1="-43.301270189221796"/><line x2="-34.64101615137741" y1="39.9999999999999" stroke="black" stroke-width="2px" y2="49.9999999999999" x1="-34.64101615137741"/><line x2="-43.301270189221796" y1="49.9999999999999" stroke="black" stroke-width="2px" y2="44.99999999999991" x1="-34.64101615137741"/><line x2="-43.301270189221796" y1="44.99999999999991" stroke="black" stroke-width="2px" y2="54.99999999999991" x1="-43.301270189221796"/><line x2="-34.64101615137741" y1="54.99999999999991" stroke="black" stroke-width="2px" y2="49.999999999999915" x1="-43.301270189221796"/><line x2="-34.64101615137741" y1="49.999999999999915" stroke="black" stroke-width="2px" y2="59.999999999999915" x1="-34.64101615137741"/><line x2="-25.980762113533018" y1="59.999999999999915" stroke="black" stroke-width="2px" y2="54.999999999999915" x1="-34.64101615137741"/><line x2="-25.980762113533014" y1="54.999999999999915" stroke="black" stroke-width="2px" y2="64.99999999999991" x1="-25.980762113533018"/><line x2="-17.320508075688625" y1="64.99999999999991" stroke="black" stroke-width="2px" y2="59.999999999999915" x1="-25.980762113533014"/><line x2="-25.980762113533007" y1="59.999999999999915" stroke="black" stroke-width="2px" y2="54.99999999999991" x1="-17.320508075688625"/><line x2="-17.32050807568862" y1="54.99999999999991" stroke="black" stroke-width="2px" y2="49.999999999999915" x1="-25.980762113533007"/><line x2="-17.320508075688615" y1="49.999999999999915" stroke="black" stroke-width="2px" y2="59.999999999999915" x1="-17.32050807568862"/><line x2="-25.980762113533004" y1="59.999999999999915" stroke="black" stroke-width="2px" y2="54.99999999999992" x1="-17.320508075688615"/><line x2="-25.980762113533" y1="54.99999999999992" stroke="black" stroke-width="2px" y2="64.99999999999991" x1="-25.980762113533004"/><line x2="-17.32050807568861" y1="64.99999999999991" stroke="black" stroke-width="2px" y2="59.999999999999915" x1="-25.980762113533"/><line x2="-17.320508075688608" y1="59.999999999999915" stroke="black" stroke-width="2px" y2="69.99999999999991" x1="-17.32050807568861"/><line x2="-8.660254037844219" y1="69.99999999999991" stroke="black" stroke-width="2px" y2="64.99999999999991" x1="-17.320508075688608"/><line x2="-8.660254037844217" y1="64.99999999999991" stroke="black" stroke-width="2px" y2="74.99999999999991" x1="-8.660254037844219"/><line x2="1.723066134218243e-13" y1="74.99999999999991" stroke="black" stroke-width="2px" y2="69.99999999999991" x1="-8.660254037844217"/><line x2="-8.66025403784421" y1="69.99999999999991" stroke="black" stroke-width="2px" y2="64.99999999999991" x1="1.723066134218243e-13"/><line x2="1.794120407794253e-13" y1="64.99999999999991" stroke="black" stroke-width="2px" y2="59.999999999999915" x1="-8.66025403784421"/><line x2="-8.660254037844203" y1="59.999999999999915" stroke="black" stroke-width="2px" y2="54.99999999999991" x1="1.794120407794253e-13"/><line x2="1.865174681370263e-13" y1="54.99999999999991" stroke="black" stroke-width="2px" y2="49.999999999999915" x1="-8.660254037844203"/><line x2="-8.660254037844195" y1="49.999999999999915" stroke="black" stroke-width="2px" y2="44.99999999999991" x1="1.865174681370263e-13"/><line x2="-8.660254037844204" y1="44.99999999999991" stroke="black" stroke-width="2px" y2="54.99999999999991" x1="-8.660254037844195"/><line x2="-17.320508075688586" y1="54.99999999999991" stroke="black" stroke-width="2px" y2="49.9999999999999" x1="-8.660254037844204"/><line x2="-8.660254037844197" y1="49.9999999999999" stroke="black" stroke-width="2px" y2="44.9999999999999" x1="-17.320508075688586"/><line x2="-8.660254037844195" y1="44.9999999999999" stroke="black" stroke-width="2px" y2="54.9999999999999" x1="-8.660254037844197"/><line x2="1.936228954946273e-13" y1="54.9999999999999" stroke="black" stroke-width="2px" y2="49.9999999999999" x1="-8.660254037844195"/><line x2="-8.660254037844188" y1="49.9999999999999" stroke="black" stroke-width="2px" y2="44.99999999999989" x1="1.936228954946273e-13"/><line x2="2.007283228522283e-13" y1="44.99999999999989" stroke="black" stroke-width="2px" y2="39.9999999999999" x1="-8.660254037844188"/><line x2="-8.660254037844181" y1="39.9999999999999" stroke="black" stroke-width="2px" y2="34.99999999999989" x1="2.007283228522283e-13"/><line x2="2.078337502098293e-13" y1="34.99999999999989" stroke="black" stroke-width="2px" y2="29.999999999999897" x1="-8.660254037844181"/><line x2="-8.660254037844174" y1="29.999999999999897" stroke="black" stroke-width="2px" y2="24.999999999999893" x1="2.078337502098293e-13"/><line x2="-8.660254037844183" y1="24.999999999999893" stroke="black" stroke-width="2px" y2="34.99999999999989" x1="-8.660254037844174"/><line x2="-17.320508075688565" y1="34.99999999999989" stroke="black" stroke-width="2px" y2="29.999999999999886" x1="-8.660254037844183"/><line x2="-8.660254037844176" y1="29.999999999999886" stroke="black" stroke-width="2px" y2="24.99999999999989" x1="-17.320508075688565"/><line x2="-8.660254037844174" y1="24.99999999999989" stroke="black" stroke-width="2px" y2="34.999999999999886" x1="-8.660254037844176"/><line x2="2.149391775674303e-13" y1="34.999999999999886" stroke="black" stroke-width="2px" y2="29.99999999999989" x1="-8.660254037844174"/><line x2="-8.660254037844167" y1="29.99999999999989" stroke="black" stroke-width="2px" y2="24.999999999999886" x1="2.149391775674303e-13"/><line x2="2.220446049250313e-13" y1="24.999999999999886" stroke="black" stroke-width="2px" y2="19.99999999999989" x1="-8.660254037844167"/><line x2="-8.66025403784416" y1="19.99999999999989" stroke="black" stroke-width="2px" y2="14.999999999999885" x1="2.220446049250313e-13"/><line x2="2.291500322826323e-13" y1="14.999999999999885" stroke="black" stroke-width="2px" y2="9.999999999999888" x1="-8.66025403784416"/><line x2="-8.660254037844153" y1="9.999999999999888" stroke="black" stroke-width="2px" y2="4.999999999999883" x1="2.291500322826323e-13"/><line x2="-8.660254037844162" y1="4.999999999999883" stroke="black" stroke-width="2px" y2="14.999999999999883" x1="-8.660254037844153"/><line x2="-17.320508075688544" y1="14.999999999999883" stroke="black" stroke-width="2px" y2="9.999999999999877" x1="-8.660254037844162"/><line x2="-17.32050807568855" y1="9.999999999999877" stroke="black" stroke-width="2px" y2="19.99999999999988" x1="-17.320508075688544"/><line x2="-25.980762113532933" y1="19.99999999999988" stroke="black" stroke-width="2px" y2="14.999999999999874" x1="-17.32050807568855"/><line x2="-25.98076211353294" y1="14.999999999999874" stroke="black" stroke-width="2px" y2="24.999999999999872" x1="-25.980762113532933"/><line x2="-17.32050807568855" y1="24.999999999999872" stroke="black" stroke-width="2px" y2="19.999999999999883" x1="-25.98076211353294"/><line x2="-17.320508075688558" y1="19.999999999999883" stroke="black" stroke-width="2px" y2="29.999999999999883" x1="-17.32050807568855"/><line x2="-25.98076211353294" y1="29.999999999999883" stroke="black" stroke-width="2px" y2="24.99999999999988" x1="-17.320508075688558"/><line x2="-17.32050807568855" y1="24.99999999999988" stroke="black" stroke-width="2px" y2="19.999999999999883" x1="-25.98076211353294"/><line x2="-25.980762113532933" y1="19.999999999999883" stroke="black" stroke-width="2px" y2="14.999999999999877" x1="-17.32050807568855"/><line x2="-25.98076211353294" y1="14.999999999999877" stroke="black" stroke-width="2px" y2="24.99999999999988" x1="-25.980762113532933"/><line x2="-34.64101615137732" y1="24.99999999999988" stroke="black" stroke-width="2px" y2="19.999999999999872" x1="-25.98076211353294"/><line x2="-25.980762113532933" y1="19.999999999999872" stroke="black" stroke-width="2px" y2="14.999999999999876" x1="-34.64101615137732"/><line x2="-25.98076211353293" y1="14.999999999999876" stroke="black" stroke-width="2px" y2="24.999999999999876" x1="-25.980762113532933"/><line x2="-17.32050807568854" y1="24.999999999999876" stroke="black" stroke-width="2px" y2="19.99999999999988" x1="-25.98076211353293"/><line x2="-25.980762113532922" y1="19.99999999999988" stroke="black" stroke-width="2px" y2="14.999999999999874" x1="-17.32050807568854"/><line x2="-17.320508075688533" y1="14.999999999999874" stroke="black" stroke-width="2px" y2="9.999999999999877" x1="-25.980762113532922"/><line x2="-17.32050807568853" y1="9.999999999999877" stroke="black" stroke-width="2px" y2="19.99999999999988" x1="-17.320508075688533"/><line x2="-25.98076211353292" y1="19.99999999999988" stroke="black" stroke-width="2px" y2="14.999999999999886" x1="-17.32050807568853"/><line x2="-25.980762113532915" y1="14.999999999999886" stroke="black" stroke-width="2px" y2="24.999999999999886" x1="-25.98076211353292"/><line x2="-17.320508075688526" y1="24.999999999999886" stroke="black" stroke-width="2px" y2="19.99999999999989" x1="-25.980762113532915"/><line x2="-17.320508075688522" y1="19.99999999999989" stroke="black" stroke-width="2px" y2="29.99999999999989" x1="-17.320508075688526"/><line x2="-8.660254037844133" y1="29.99999999999989" stroke="black" stroke-width="2px" y2="24.999999999999893" x1="-17.320508075688522"/><line x2="-8.660254037844132" y1="24.999999999999893" stroke="black" stroke-width="2px" y2="34.99999999999989" x1="-8.660254037844133"/><line x2="2.575717417130363e-13" y1="34.99999999999989" stroke="black" stroke-width="2px" y2="29.999999999999897" x1="-8.660254037844132"/><line x2="-8.660254037844124" y1="29.999999999999897" stroke="black" stroke-width="2px" y2="24.999999999999893" x1="2.575717417130363e-13"/><line x2="2.646771690706373e-13" y1="24.999999999999893" stroke="black" stroke-width="2px" y2="19.999999999999897" x1="-8.660254037844124"/><line x2="-8.660254037844117" y1="19.999999999999897" stroke="black" stroke-width="2px" y2="14.999999999999892" x1="2.646771690706373e-13"/><line x2="2.717825964282383e-13" y1="14.999999999999892" stroke="black" stroke-width="2px" y2="9.999999999999895" x1="-8.660254037844117"/><line x2="-8.66025403784411" y1="9.999999999999895" stroke="black" stroke-width="2px" y2="4.99999999999989" x1="2.717825964282383e-13"/><line x2="-8.660254037844119" y1="4.99999999999989" stroke="black" stroke-width="2px" y2="14.99999999999989" x1="-8.66025403784411"/><line x2="-17.3205080756885" y1="14.99999999999989" stroke="black" stroke-width="2px" y2="9.999999999999885" x1="-8.660254037844119"/><line x2="-8.660254037844112" y1="9.999999999999885" stroke="black" stroke-width="2px" y2="4.999999999999888" x1="-17.3205080756885"/><line x2="-8.66025403784411" y1="4.999999999999888" stroke="black" stroke-width="2px" y2="14.999999999999888" x1="-8.660254037844112"/><line x2="2.788880237858393e-13" y1="14.999999999999888" stroke="black" stroke-width="2px" y2="9.999999999999892" x1="-8.66025403784411"/><line x2="-8.660254037844103" y1="9.999999999999892" stroke="black" stroke-width="2px" y2="4.999999999999886" x1="2.788880237858393e-13"/><line x2="2.859934511434403e-13" y1="4.999999999999886" stroke="black" stroke-width="2px" y2="-1.1013412404281553e-13" x1="-8.660254037844103"/></g></svg>
