<?xml version="1.0" encoding="UTF-8"?>
<!DOCTYPE svg PUBLIC "-//W3C//DTD SVG 1.1//EN"
    "http://www.w3.org/Graphics/SVG/1.1/DTD/svg11.dtd"><svg xmlns="http://www.w3.org/2000/svg" height="300" width="300" xmlns:xlink="http://www.w3.org/1999/xlink" version="1.11.1"><g transform="translate(50,10)"><line x2="0.0" y1="0.0" stroke="black" stroke-width="2px" y2="10.0" x1="0.0"/><line x2="-8.660254037844387" y1="10.0" stroke="black" stroke-width="2px" y2="5.000000000000002" x1="0.0"/><line x2="-8.660254037844387" y1="5.000000000000002" stroke="black" stroke-width="2px" y2="15.000000000000002" x1="-8.660254037844387"/><line x2="0.0" y1="15.000000000000002" stroke="black" stroke-width="2px" y2="10.000000000000004" x1="-8.660254037844387"/><line x2="0.0" y1="10.000000000000004" stroke="black" stroke-width="2px" y2="20.000000000000004" x1="0.0"/><line x2="-8.660254037844387" y1="20.000000000000004" stroke="black" stroke-width="2px" y2="15.000000000000005" x1="0.0"/><line x2="-3.552713678800501e-15" y1="15.000000000000005" stroke="black" stroke-width="2px" y2="10.0" x1="-8.660254037844387"/><line x2="-8.66025403784439" y1="10.0" stroke="black" stroke-width="2px" y2="5.000000000000002" x1="-3.552713678800501e-15"/><line x2="-8.66025403784439" y1="5.000000000000002" stroke="black" stroke-width="2px" y2="15.000000000000002" x1="-8.66025403784439"/><line x2="-17.320508075688778" y1="15.000000000000002" stroke="black" stroke-width="2px" y2="10.000000000000004" x1="-8.66025403784439"/><line x2="-8.660254037844394" y1="10.000000000000004" stroke="black" stroke-width="2px" y2="4.999999999999999" x1="-17.320508075688778"/><line x2="-8.660254037844393" y1="4.999999999999999" stroke="black" stroke-width="2px" y2="15.0" x1="-8.660254037844394"/><line x2="-3.552713678800501e-15" y1="15.0" stroke="black" stroke-width="2px" y2="10.000000000000004" x1="-8.660254037844393"/><line x2="-8.660254037844386" y1="10.000000000000004" stroke="black" stroke-width="2px" y2="4.999999999999998" x1="-3.552713678800501e-15"/><line x2="3.552713678800501e-15" y1="4.999999999999998" stroke="black" stroke-width="2px" y2="1.7763568394002505e-15" x1="-8.660254037844386"/></g></svg>